<?xml version="1.0" encoding="utf-8"?>
<!-- Generator: Adobe Illustrator 26.4.0, SVG Export Plug-In . SVG Version: 6.00 Build 0)  -->
<svg version="1.1" id="Layer_1" xmlns="http://www.w3.org/2000/svg" xmlns:xlink="http://www.w3.org/1999/xlink" x="0px" y="0px"
	 viewBox="0 0 18 17.5" style="enable-background:new 0 0 18 17.5;" xml:space="preserve">
<style type="text/css">
	.st0{display:none;}
</style>
<path id="mask1" class="st0" d="M0,15.5V5.4C0,5.2,0.1,5.1,0.2,5l0.4-0.5C0.8,4.4,0.8,4.2,0.8,4V0.6C0.8,0.2,1.1,0,1.5,0h9.1
	c0.3,0,0.5,0.2,0.6,0.4L11.4,1c0.1,0.1,0.2,0.2,0.3,0.2h5.7c0.3,0,0.6,0.2,0.6,0.6l0,0v15c0,0.3-0.2,0.6-0.6,0.6l0,0H4.9
	c-0.2,0-0.3-0.1-0.5-0.2l-0.9-1C3.4,16.1,3.2,16,3,16H0.6c-0.3,0.1-0.5-0.1-0.6-0.4V15.5z"/>
<path id="mask0" class="st0" d="M0,13.1V4.4C0,4,0.3,3.7,0.7,3.7l0,0h2c0.2,0,0.3,0.1,0.5,0.2L4,4.7c0.1,0.1,0.3,0.2,0.5,0.2h12.8
	c0.4,0,0.7,0.3,0.7,0.7l0,0v6.9c0,0.2-0.1,0.3-0.2,0.5l-0.7,0.7c-0.1,0.1-0.3,0.2-0.5,0.2h-16C0.3,13.8,0,13.5,0,13.1z"/>
<path id="mask2" class="st0" d="M12.6,2.9l-0.4,0.4c-0.1,0.1-0.1,0.2-0.1,0.3V17c0,0.3-0.2,0.5-0.4,0.5c0,0,0,0-0.1,0H5.7
	c-0.3,0-0.5-0.2-0.5-0.4c0,0,0,0,0-0.1V0.4C5.2,0.2,5.5,0,5.7,0h6.6c0.3,0,0.5,0.2,0.5,0.4c0,0,0,0,0,0.1v2.1
	C12.8,2.7,12.7,2.8,12.6,2.9z"/>
<path id="mask3" class="st0" d="M1.1,17.5h14.4c0.3,0,0.5-0.1,0.7-0.3l1.5-1.4c0.2-0.2,0.3-0.4,0.3-0.7V1c0-0.6-0.4-1-1-1H1.9
	c-0.6,0-1,0.4-1,1v8.4c0,0.3-0.1,0.5-0.3,0.7l-0.2,0.2C0.1,10.5,0,10.7,0,11v5.5c0,0.6,0.4,1,1,1C1,17.5,1,17.5,1.1,17.5z"/>
<path id="mask4" class="st0" d="M0,0.6C0.1,0.2,0.4,0,0.8,0h9.7c0.4,0,0.9,0.9,1.4,0.9h5.3c0.4,0,0.8,0.3,0.8,0.6v14.7
	c0,0.1-0.1,0.3-0.2,0.4l-1,0.8c-0.1,0.1-0.3,0.2-0.5,0.2h-15c-0.4,0-0.7-0.2-0.8-0.6v-6.1c0-0.2-0.5-0.6-0.5-1L0,0.6z"/>
<path id="mask2ndlayer0" class="st0" d="M1.9,0h15.5c0.1,0,0.2,0.1,0.2,0.2v4.2c0,0.1,0,0.1-0.1,0.2L17,5.1c0,0-0.1,0.1-0.1,0.2v6.5
	c0,0.1,0,0.2,0.1,0.2l0.5,0.4c0.1,0,0.1,0.1,0.1,0.2v4.8c0,0.1-0.1,0.2-0.2,0.2H2.3c-0.1,0-0.1,0-0.2-0.1l-1.7-1.6
	c0,0-0.1-0.1-0.1-0.2v-3.3c0-0.1,0-0.1,0.1-0.2l1.1-0.9c0.1,0,0.1-0.1,0.1-0.2V0.2C1.6,0.1,1.8,0,1.9,0z"/>
<path id="mask2ndlayer1" class="st0" d="M0,1.1v15.4c0,0.2,0.1,0.3,0.3,0.3h11.9c0.1,0,0.1,0,0.2,0.1l0.4,0.5c0,0.1,0.1,0.1,0.2,0.1
	h4.9c0.1,0,0.3-0.2,0.3-0.3V0.9c0-0.1,0-0.2-0.1-0.3l-0.4-0.5C17.4,0,17.4,0,17.3,0H9.8c0,0-0.1,0-0.1,0.1L9.1,0.6
	C9.1,0.7,9,0.7,9,0.7H0.3C0.1,0.7,0,0.9,0,1.1z"/>
<path id="maskLaunch2" class="st0" d="M18,13.4V4.1c0-0.2-0.2-0.4-0.4-0.4h-3.2c-0.1,0-0.2,0.1-0.3,0.2L13,5
	c-0.1,0.1-0.2,0.2-0.4,0.2H0.4C0.2,5.2,0,5.3,0,5.6v7c0,0.1,0,0.2,0.1,0.3L1,13.7c0.1,0.1,0.2,0.1,0.3,0.1h16.3
	C17.8,13.8,18,13.6,18,13.4z"/>
<path id="maskLaunch1" class="st0" d="M4.7,2.9l0.6,0.6c0.1,0.1,0.1,0.2,0.1,0.3v13.3c0,0.2,0.2,0.4,0.4,0.4H13
	c0.2,0,0.4-0.2,0.4-0.4V0.4C13.4,0.2,13.2,0,13,0H5C4.8,0,4.6,0.2,4.6,0.4v2.3C4.6,2.8,4.6,2.8,4.7,2.9z"/>
<path id="maskLaunch0" d="M14.9,16h2.8c0.2,0,0.3-0.2,0.3-0.3V7.2c0-0.1,0-0.1-0.1-0.2l-0.6-0.6c-0.1-0.1-0.1-0.2-0.1-0.3V0.7
	c0-0.2-0.2-0.3-0.3-0.3H1.5c-0.1,0-0.1,0-0.2,0.1l-1.1,1C0.1,1.6,0,1.6,0,1.7c0,0.1,0,15.1,0,15.1c0,0.2,0.2,0.3,0.3,0.3h13.2
	c0.1,0,0.2,0,0.3-0.1l0.8-0.9C14.7,16,14.7,16,14.9,16z"/>
<path id="mask-mobile" class="st0" d="M3.2,16.1V5.5c0-0.2,0.1-0.3,0.2-0.4l0.4-0.5C4,4.4,4,4.2,4,4.1V0.6C4,0.2,4.3,0,4.7,0h5.7
	c0.3,0,0.4,0.2,0.6,0.4l0.2,0.2c0.1,0.1,0.2,0.2,0.3,0.2h2.7c0.3,0,0.6,0.2,0.6,0.6l0,0v15.5c0,0.3-0.2,0.6-0.6,0.6l0,0H8.1
	c-0.2,0-0.3-0.1-0.5-0.2l-0.9-0.5c-0.1-0.1-0.3-0.2-0.5-0.2H3.8C3.5,16.6,3.3,16.5,3.2,16.1C3.2,16.2,3.2,16.1,3.2,16.1z"/>
</svg>
