<svg width="1024" height="1024" viewBox="0 0 1024 1024" fill="none" xmlns="http://www.w3.org/2000/svg">
<rect width="1024" height="1024" rx="120" fill="black"/>
<path fill-rule="evenodd" clip-rule="evenodd" d="M434.193 680.242C434.193 687.821 440.337 693.965 447.917 693.965H472.216C479.796 693.965 485.94 700.11 485.94 707.689V940.015C485.94 947.594 492.084 953.738 499.664 953.738H523.963C531.542 953.738 537.687 947.594 537.687 940.015V707.689C537.687 700.11 543.831 693.965 551.411 693.965H575.71C583.289 693.965 589.434 687.821 589.434 680.242V551.967C589.434 544.387 595.578 538.243 603.158 538.243H731.91C739.489 538.243 745.634 532.098 745.634 524.519V500.22C745.634 492.64 739.489 486.496 731.91 486.496H603.158C595.578 486.496 589.434 480.351 589.434 472.772V344.497C589.434 336.918 583.289 330.773 575.71 330.773H551.411C543.831 330.773 537.687 324.629 537.687 317.049V84.7239C537.687 77.1444 531.542 71 523.963 71H499.664C492.084 71 485.94 77.1444 485.94 84.7239V317.049C485.94 324.629 479.796 330.773 472.216 330.773H447.917C440.337 330.773 434.193 336.918 434.193 344.497V472.772C434.193 480.351 428.049 486.496 420.469 486.496H292.011C284.431 486.496 278.287 492.64 278.287 500.22V524.519C278.287 532.098 284.431 538.243 292.011 538.243H420.469C428.049 538.243 434.193 544.387 434.193 551.967V680.242ZM499.648 330.539C492.069 330.539 485.924 336.683 485.924 344.263V472.782C485.924 480.362 479.78 486.506 472.201 486.506H447.901C440.322 486.506 434.177 492.651 434.177 500.23V524.659C434.177 532.238 440.322 538.383 447.901 538.383H472.201C479.78 538.383 485.924 544.527 485.924 552.106V680.497C485.924 688.077 492.069 694.221 499.648 694.221H523.947C531.527 694.221 537.671 688.077 537.671 680.497V551.977C537.671 544.398 543.816 538.253 551.395 538.253H575.694C583.274 538.253 589.418 532.109 589.418 524.529V500.327C589.418 492.748 583.274 486.603 575.694 486.603H551.395C543.816 486.603 537.671 480.459 537.671 472.879V344.263C537.671 336.683 531.527 330.539 523.947 330.539H499.648Z" fill="white"/>
</svg>
