<svg width="30" height="30" viewBox="0 0 30 30" fill="none" xmlns="http://www.w3.org/2000/svg">
<path d="M22.3438 11.8203C22.7621 12.2377 23.0941 12.7336 23.3206 13.2795C23.5471 13.8254 23.6636 14.4106 23.6636 15.0016C23.6636 15.5926 23.5471 16.1778 23.3206 16.7237C23.0941 17.2695 22.7621 17.7654 22.3438 18.1828" stroke="white" stroke-linecap="round" stroke-linejoin="round"/>
<path d="M20 13.5859C20.1859 13.7712 20.3335 13.9913 20.4342 14.2337C20.5348 14.4761 20.5867 14.736 20.5867 14.9984C20.5867 15.2609 20.5348 15.5208 20.4342 15.7632C20.3335 16.0056 20.1859 16.2257 20 16.4109" stroke="white" stroke-linecap="round" stroke-linejoin="round"/>
<path fill-rule="evenodd" clip-rule="evenodd" d="M16.7197 8.55085C16.8912 8.63475 17 8.80904 17 9.00001V21C17 21.191 16.8912 21.3653 16.7197 21.4492C16.5481 21.5331 16.3438 21.5119 16.193 21.3947L11.8284 18H9C8.73478 18 8.48043 17.8947 8.29289 17.7071C8.10536 17.5196 8 17.2652 8 17V13C8 12.7348 8.10536 12.4804 8.29289 12.2929C8.48043 12.1054 8.73478 12 9 12H11.8284L16.193 8.60533C16.3438 8.48809 16.5481 8.46695 16.7197 8.55085ZM16 10.0223L12.307 12.8947C12.2192 12.9629 12.1112 13 12 13H9L9 17H12C12.1112 17 12.2192 17.0371 12.307 17.1053L16 19.9777V10.0223Z" fill="white"/>
</svg>
