<svg width="28" height="28" viewBox="0 0 28 28" fill="none" xmlns="http://www.w3.org/2000/svg">
<path d="M16.0812 23.8799C15.003 25.5957 12.5025 25.5957 11.4243 23.8799L2.44693 9.59348H4.21849L12.6944 23.0819C13.1844 23.8618 14.321 23.8618 14.8111 23.0819L24.3883 7.84085C24.9114 7.0084 24.3131 5.92578 23.3299 5.92578H5.62812C5.53158 5.91019 5.43254 5.90209 5.33161 5.90209H1.73828C2.18488 5.04857 3.06952 4.42578 4.17555 4.42578H23.3299C25.4929 4.42578 26.8092 6.80755 25.6584 8.63894L16.0812 23.8799Z" fill="black"/>
<path d="M13.0554 8.4375H14.45V14.5805H13.0554V8.4375Z" fill="black"/>
<path d="M13.0554 15.9922H14.45V17.6222H13.0554V15.9922Z" fill="black"/>
</svg>
