<svg id="Layer_1" data-name="Layer 1" xmlns="http://www.w3.org/2000/svg" xmlns:xlink="http://www.w3.org/1999/xlink" viewBox="0 0 139 145.84"><defs><linearGradient id="linear-gradient" x1="102.5" y1="139.99" x2="102.5" y2="5" gradientTransform="matrix(1, 0, 0, -1, 0, 148)" gradientUnits="userSpaceOnUse"><stop offset="0" stop-color="#fff"/><stop offset="1" stop-color="#fff" stop-opacity="0"/></linearGradient><linearGradient id="linear-gradient-2" x1="36.23" y1="8.01" x2="36.23" y2="143" xlink:href="#linear-gradient"/></defs><path d="M66,142.41a69.33,69.33,0,0,0,49.75-17.6,68.35,68.35,0,0,0-16.7-112.7A69.49,69.49,0,0,0,73,5.59" transform="translate(0 -0.92)" fill="none" stroke="url(#linear-gradient)"/><path d="M72.88,5a.2.2,0,0,1,0,.25l-3.53,5.38a.21.21,0,0,1-.34,0L65.51,5.25a.21.21,0,0,1,0-.25l3.54-3.52a.19.19,0,0,1,.28,0Z" transform="translate(0 -0.92)" fill="none" stroke="#fff" stroke-miterlimit="10"/><path d="M72.44,5.59a68.5,68.5,0,1,0-6.88,136.82" transform="translate(0 -0.92)" fill="none" stroke="url(#linear-gradient-2)"/><path d="M72.91,142.42a.2.2,0,0,1,0,.25l-3.53,3.53a.21.21,0,0,1-.28,0l-3.54-3.53a.21.21,0,0,1,0-.25L69,137.05a.21.21,0,0,1,.34,0Z" transform="translate(0 -0.92)" fill="none" stroke="#fff" stroke-miterlimit="10"/></svg>