<svg width="23" height="21" viewBox="0 0 23 21" fill="none" xmlns="http://www.w3.org/2000/svg">
<path d="M21.7384 0.332031L12.8682 6.58713L14.4809 2.91145L21.7384 0.332031Z" fill="#E17726" stroke="#E17726" stroke-width="0.25" stroke-linecap="round" stroke-linejoin="round"/>
<path d="M1.37695 0.332031L10.1128 6.65162L8.56719 2.91145L1.37695 0.332031Z" fill="#E27625" stroke="#E27625" stroke-width="0.25" stroke-linecap="round" stroke-linejoin="round"/>
<path d="M18.5795 14.9062L16.2275 18.324L21.2674 19.6782L22.6786 14.9707L18.5795 14.9062Z" fill="#E27625" stroke="#E27625" stroke-width="0.25" stroke-linecap="round" stroke-linejoin="round"/>
<path d="M0.435547 14.9707L1.84671 19.6782L6.8866 18.324L4.53465 14.9062L0.435547 14.9707Z" fill="#E27625" stroke="#E27625" stroke-width="0.25" stroke-linecap="round" stroke-linejoin="round"/>
<path d="M6.6182 9.0386L5.20703 11.0377L10.1797 11.2311L10.0453 6.07227L6.6182 9.0386Z" fill="#E27625" stroke="#E27625" stroke-width="0.25" stroke-linecap="round" stroke-linejoin="round"/>
<path d="M16.4969 9.0386L13.0026 6.07227L12.8682 11.2956L17.8409 11.1021L16.4969 9.0386Z" fill="#E27625" stroke="#E27625" stroke-width="0.25" stroke-linecap="round" stroke-linejoin="round"/>
<path d="M6.88672 18.324L9.91065 16.9053L7.28991 14.9707L6.88672 18.324Z" fill="#E27625" stroke="#E27625" stroke-width="0.25" stroke-linecap="round" stroke-linejoin="round"/>
<path d="M13.2041 16.9053L16.228 18.324L15.8248 14.9707L13.2041 16.9053Z" fill="#E27625" stroke="#E27625" stroke-width="0.25" stroke-linecap="round" stroke-linejoin="round"/>
<path d="M16.228 18.3249L13.2041 16.9062L13.4729 18.7763V19.5502L16.228 18.3249Z" fill="#D5BFB2" stroke="#D5BFB2" stroke-width="0.25" stroke-linecap="round" stroke-linejoin="round"/>
<path d="M6.88672 18.3249L9.70905 19.6146V18.8408L9.97785 16.9707L6.88672 18.3249Z" fill="#D5BFB2" stroke="#D5BFB2" stroke-width="0.25" stroke-linecap="round" stroke-linejoin="round"/>
<path d="M9.709 13.7449L7.22266 13.0355L8.96982 12.2617L9.709 13.7449Z" fill="#233447" stroke="#233447" stroke-width="0.25" stroke-linecap="round" stroke-linejoin="round"/>
<path d="M13.3379 13.7449L14.0771 12.2617L15.8242 13.0355L13.3379 13.7449Z" fill="#233447" stroke="#233447" stroke-width="0.25" stroke-linecap="round" stroke-linejoin="round"/>
<path d="M6.8871 18.324L7.29029 14.9062L4.53516 14.9707L6.8871 18.324Z" fill="#CC6228" stroke="#CC6228" stroke-width="0.25" stroke-linecap="round" stroke-linejoin="round"/>
<path d="M15.7578 14.9062L16.161 18.324L18.5129 14.9707L15.7578 14.9062Z" fill="#CC6228" stroke="#CC6228" stroke-width="0.25" stroke-linecap="round" stroke-linejoin="round"/>
<path d="M17.9082 11.1016L12.9355 11.295L13.4059 13.7455L14.1451 12.2623L15.8923 13.0361L17.9082 11.1016Z" fill="#CC6228" stroke="#CC6228" stroke-width="0.25" stroke-linecap="round" stroke-linejoin="round"/>
<path d="M7.22299 13.0361L8.97015 12.2623L9.70933 13.7455L10.1797 11.295L5.20703 11.1016L7.22299 13.0361Z" fill="#CC6228" stroke="#CC6228" stroke-width="0.25" stroke-linecap="round" stroke-linejoin="round"/>
<path d="M5.20703 11.1016L7.29018 15.0352L7.22299 13.1006L5.20703 11.1016Z" fill="#E27525" stroke="#E27525" stroke-width="0.25" stroke-linecap="round" stroke-linejoin="round"/>
<path d="M15.8914 13.0362L15.8242 14.9707L17.9074 11.0371L15.8914 13.0362Z" fill="#E27525" stroke="#E27525" stroke-width="0.25" stroke-linecap="round" stroke-linejoin="round"/>
<path d="M10.1794 11.2969L9.70898 13.7473L10.3138 16.6492L10.4482 12.8445L10.1794 11.2969Z" fill="#E27525" stroke="#E27525" stroke-width="0.25" stroke-linecap="round" stroke-linejoin="round"/>
<path d="M12.8674 11.2969L12.5986 12.8445L12.733 16.6492L13.3378 13.7473L12.8674 11.2969Z" fill="#E27525" stroke="#E27525" stroke-width="0.25" stroke-linecap="round" stroke-linejoin="round"/>
<path d="M13.3382 13.7445L12.7334 16.6463L13.1366 16.9043L15.7573 14.9697L15.8245 13.0352L13.3382 13.7445Z" fill="#F5841F" stroke="#F5841F" stroke-width="0.25" stroke-linecap="round" stroke-linejoin="round"/>
<path d="M7.22266 13.0352L7.28985 14.9697L9.9106 16.9043L10.3138 16.6463L9.709 13.7445L7.22266 13.0352Z" fill="#F5841F" stroke="#F5841F" stroke-width="0.25" stroke-linecap="round" stroke-linejoin="round"/>
<path d="M13.405 19.612V18.8381L13.2034 18.6447H9.84345L9.64186 18.8381V19.612L6.88672 18.3223L7.8947 19.0961L9.84345 20.3858H13.2706L15.2865 19.0961L16.2273 18.3223L13.405 19.612Z" fill="#C0AC9D" stroke="#C0AC9D" stroke-width="0.25" stroke-linecap="round" stroke-linejoin="round"/>
<path d="M13.2041 16.9064L12.8009 16.6484H10.3146L9.91137 16.9064L9.64258 18.7765L9.84417 18.583H13.2041L13.4057 18.7765L13.2041 16.9064Z" fill="#161616" stroke="#161616" stroke-width="0.25" stroke-linecap="round" stroke-linejoin="round"/>
<path d="M22.0743 7.03853L22.8135 3.55631L21.6711 0.332031L13.2041 6.39367L16.4968 9.03758L21.1335 10.3273L22.1415 9.16655L21.6711 8.90861L22.4103 8.26375L21.8727 7.87684L22.6119 7.36096L22.0743 7.03853Z" fill="#763E1A" stroke="#763E1A" stroke-width="0.25" stroke-linecap="round" stroke-linejoin="round"/>
<path d="M0.234375 3.55631L0.973558 7.03853L0.503169 7.36096L1.24235 7.87684L0.704764 8.26375L1.44395 8.90861L0.973558 9.23104L1.98154 10.3918L6.61823 9.10207L9.91096 6.45816L1.37675 0.332031L0.234375 3.55631Z" fill="#763E1A" stroke="#763E1A" stroke-width="0.25" stroke-linecap="round" stroke-linejoin="round"/>
<path d="M21.1329 10.3268L16.4962 9.03711L17.9074 11.0362L15.8242 14.9698L18.5794 14.9053H22.6785L21.1329 10.3268Z" fill="#F5841F" stroke="#F5841F" stroke-width="0.25" stroke-linecap="round" stroke-linejoin="round"/>
<path d="M6.61781 9.03711L1.98111 10.3268L0.435547 14.9053H4.53465L7.28979 14.9698L5.20664 11.0362L6.61781 9.03711Z" fill="#F5841F" stroke="#F5841F" stroke-width="0.25" stroke-linecap="round" stroke-linejoin="round"/>
<path d="M12.8679 11.2952L13.1367 6.39433L14.4807 2.91211H8.5L9.84397 6.39433L10.1128 11.2952L10.2472 12.8429V16.6475H12.7335V12.8429L12.8679 11.2952Z" fill="#F5841F" stroke="#F5841F" stroke-width="0.25" stroke-linecap="round" stroke-linejoin="round"/>
</svg>
