<svg width="15" height="14" viewBox="0 0 15 14" fill="none" xmlns="http://www.w3.org/2000/svg">
<path d="M11.3442 5.99427C11.3446 5.17894 11.1031 4.38183 10.6503 3.70377C10.1976 3.02571 9.55386 2.49717 8.80066 2.185C8.04746 1.87284 7.21859 1.79107 6.41891 1.95006C5.61924 2.10904 4.88468 2.50162 4.30815 3.07814C3.73163 3.65467 3.33905 4.38923 3.18007 5.18891C3.02108 5.98858 3.10285 6.81745 3.41501 7.57065C3.72718 8.32385 4.25572 8.96754 4.93378 9.42031C5.61184 9.87307 6.40895 10.1146 7.22428 10.1142L9.47303 10.1175" stroke="white" stroke-linecap="round" stroke-linejoin="round"/>
<path fill-rule="evenodd" clip-rule="evenodd" d="M6.81564 12.7372C6.62037 12.9325 6.62037 13.249 6.81564 13.4443C7.0109 13.6396 7.32748 13.6396 7.52274 13.4443L9.37768 11.5894L7.92172 11.6311L6.81564 12.7372ZM8.93509 10.6177L10.3911 10.576L10.5284 10.4387C10.7236 10.2434 10.7236 9.92681 10.5284 9.73155L7.52274 6.72591C7.32748 6.53065 7.0109 6.53065 6.81564 6.72591C6.62037 6.92117 6.62037 7.23776 6.81564 7.43302L9.46772 10.0851L8.93509 10.6177Z" fill="white"/>
</svg>
