<svg width="23" height="15" viewBox="0 0 23 15" fill="black" xmlns="http://www.w3.org/2000/svg">
<path d="M5.21803 3.61242C8.82302 0.0914328 14.675 0.0914328 18.28 3.61242L18.714 4.03942C18.896 4.21442 18.896 4.50142 18.714 4.67642L17.23 6.12541C17.139 6.21641 16.992 6.21641 16.901 6.12541L16.306 5.54441C13.786 3.08742 9.71201 3.08742 7.19202 5.54441L6.55502 6.16741C6.46402 6.25841 6.31703 6.25841 6.22603 6.16741L4.74203 4.71842C4.56003 4.54342 4.56003 4.25642 4.74203 4.08142L5.21803 3.61242ZM21.353 6.60841L22.676 7.8964C22.858 8.0714 22.858 8.3584 22.676 8.5334L16.719 14.3504C16.537 14.5254 16.243 14.5254 16.068 14.3504L11.84 10.2204C11.798 10.1784 11.721 10.1784 11.679 10.2204L7.45102 14.3504C7.26902 14.5254 6.97502 14.5254 6.80002 14.3504L0.822046 8.5334C0.640047 8.3584 0.640047 8.0714 0.822046 7.8964L2.14504 6.60841C2.32704 6.43341 2.62104 6.43341 2.79604 6.60841L7.02402 10.7384C7.06602 10.7804 7.14302 10.7804 7.18502 10.7384L11.413 6.60841C11.595 6.43341 11.889 6.43341 12.064 6.60841L16.292 10.7384C16.334 10.7804 16.411 10.7804 16.453 10.7384L20.681 6.60841C20.877 6.43341 21.171 6.43341 21.353 6.60841Z" fill="black"/>
</svg>
